<svg height="512pt" viewBox="0 -31 512 511" width="512pt" xmlns="http://www.w3.org/2000/svg"><path d="m134.925781 144.4375c-5.859375-5.863281-15.359375-5.863281-21.21875 0-5.859375 5.859375-5.859375 15.359375 0 21.21875s15.359375 5.859375 21.21875 0 5.859375-15.359375 0-21.21875zm0 0"/><path d="m113.707031 208.09375c-5.859375-5.859375-15.359375-5.859375-21.222656 0-5.859375 5.859375-5.859375 15.359375 0 21.21875 5.863281 5.859375 15.363281 5.859375 21.222656 0s5.859375-15.359375 0-21.21875zm0 0"/><path d="m177.363281 229.308594c-5.859375-5.859375-15.359375-5.859375-21.21875 0s-5.859375 15.359375 0 21.21875 15.359375 5.859375 21.21875 0 5.859375-15.359375 0-21.21875zm0 0"/><path d="m398.617188 26.179688c-46.066407-46.070313-124.835938-27.464844-145.4375 34.335937l-32.867188 98.609375-8.535156-22.195312c-13.367188-34.753907-43.09375-60.113282-79.519532-67.84375-36.421874-7.730469-73.890624 3.375-100.21875 29.703124-42.71875 42.71875-42.71875 112.226563 0 154.949219l172.542969 172.539063c31.792969 31.792968 83.527344 31.796875 115.324219 0 13.121094-13.121094 21.4375-30.507813 23.417969-48.957032l23.007812-214.316406c41.21875 34.199219 102.664063 31.996094 141.273438-6.617187 5.859375-5.855469 5.859375-15.359375 0-21.21875zm-18.324219 108.988281c-3.757813-3.757813-31.460938-31.457031-33.171875-33.171875-5.859375-5.859375-15.359375-5.859375-21.21875 0-5.863282 5.859375-5.859375 15.359375 0 21.21875l13.109375 13.113281-4.113281 38.324219-8.996094-9c-5.859375-5.859375-15.359375-5.859375-21.21875 0-5.863282 5.859375-5.863282 15.359375 0 21.21875l26.101562 26.105468-4.113281 38.320313-21.992187-21.988281c-5.855469-5.859375-15.355469-5.859375-21.21875 0-5.859376 5.859375-5.859376 15.359375 0 21.21875l39.097656 39.09375-9.070313 84.492187c-1.253906 11.660157-6.511719 22.648438-14.800781 30.945313-20.097656 20.089844-52.792969 20.09375-72.890625 0l-172.539063-172.539063c-15.023437-15.027343-23.300781-35.007812-23.300781-56.257812s8.277344-41.226563 23.300781-56.253907c18.90625-18.90625 46.027344-27.242187 72.773438-21.566406 26.445312 5.609375 48.03125 24.027344 57.738281 49.261719 7.644531 19.878906 46.238281 120.222656 53.859375 140.042969 2.976563 7.730468 11.652344 11.589844 19.390625 8.617187 7.734375-2.976562 11.59375-11.65625 8.621094-19.390625l-28.382813-73.792968 44.390626-133.179688c13.566406-40.691406 65.429687-52.925781 95.753906-22.601562l97.3125 97.3125c-29.117188 19.253906-68.808594 16.074218-94.421875-9.542969zm0 0"/></svg>