<svg height="511pt" viewBox="-98 0 511 511.99974" width="511pt" xmlns="http://www.w3.org/2000/svg"><path d="m286.269531 9.507812-3.773437-1.011718c-15.53125-4.160156-31.5 5.058594-35.660156 20.589844l-32.933594 122.933593-6-2.1875c-2.796875-1.015625-5.644532-1.558593-8.464844-1.675781l-.046875-.023438h-115.546875l-24.253906-92.050781c-3.457032-13.125-16.925782-20.933593-30.03125-17.421875l-3.402344.914063c-13.035156 3.492187-20.789062 16.871093-17.34375 29.917969l30.167969 114.171874v94c0 20.671876 15.84375 37.644532 36.050781 39.4375 1.167969.105469 2.351562.167969 3.542969.167969 1.738281 0 3.296875.695313 4.429687 1.828125 1.132813 1.136719 1.84375 2.707032 1.84375 4.429688v180.96875h155.871094v-167.695313l3.832031-19.699219 24.449219-125.71875 3.507812-18.039062 34.351563-128.175781c4.160156-15.53125-5.054687-31.496094-20.589844-35.660157zm0 0" fill="#ffc999"/><path d="m286.269531 9.507812-3.773437-1.011718c-6.675782-1.789063-13.429688-1.097656-19.292969 1.496094 14.558594 4.796874 23.003906 20.1875 18.988281 35.175781l-34.347656 128.175781-3.507812 18.039062-24.453126 125.71875-3.828124 19.699219v167.699219h24.664062v-167.699219l3.832031-19.699219 24.449219-125.71875 3.507812-18.039062 34.351563-128.175781c4.160156-15.53125-5.054687-31.496094-20.589844-35.660157zm0 0" fill="#e89c5d"/><path d="m59.921875 367.851562v54.976563c0 12.125 9.828125 21.957031 21.957031 21.957031h163.851563c12.125 0 21.957031-9.832031 21.957031-21.957031v-54.976563c0-12.128906-9.832031-21.960937-21.957031-21.960937h-163.851563c-12.128906 0-21.957031 9.832031-21.957031 21.960937zm0 0" fill="#4a4a68"/><path d="m245.730469 345.890625h-26.1875c12.128906 0 21.960937 9.832031 21.960937 21.957031v54.976563c0 12.128906-9.832031 21.960937-21.960937 21.960937h26.1875c12.125 0 21.957031-9.832031 21.957031-21.960937v-54.972657c0-12.128906-9.832031-21.960937-21.957031-21.960937zm0 0" fill="#333356"/><g fill="#fffddc"><path d="m116.480469 395.335938c0 8.785156-7.121094 15.910156-15.90625 15.910156-8.785157 0-15.90625-7.125-15.90625-15.910156 0-8.785157 7.121093-15.90625 15.90625-15.90625 8.785156 0 15.90625 7.121093 15.90625 15.90625zm0 0"/><path d="m179.710938 395.335938c0 8.785156-7.121094 15.910156-15.90625 15.910156-8.785157 0-15.90625-7.125-15.90625-15.910156 0-8.785157 7.121093-15.90625 15.90625-15.90625 8.785156 0 15.90625 7.121093 15.90625 15.90625zm0 0"/><path d="m242.9375 395.335938c0 8.785156-7.121094 15.910156-15.90625 15.910156s-15.90625-7.125-15.90625-15.910156c0-8.785157 7.121094-15.90625 15.90625-15.90625s15.90625 7.121093 15.90625 15.90625zm0 0"/></g><path d="m82.753906 149.617188v58.84375c0 18.242187 14.789063 33.027343 33.027344 33.027343 18.242188 0 33.03125-14.789062 33.03125-33.027343v-58.84375c0-18.242188-14.789062-33.027344-33.03125-33.027344-18.238281 0-33.027344 14.789062-33.027344 33.027344zm0 0" fill="#f4ad73"/><path d="m148.8125 149.617188v58.84375c0 18.242187 14.789062 33.027343 33.027344 33.027343 18.242187 0 33.03125-14.789062 33.03125-33.027343v-58.84375c0-18.242188-14.789063-33.027344-33.03125-33.027344-18.238282 0-33.027344 14.789062-33.027344 33.027344zm0 0" fill="#e5955a"/><path d="m274.222656 178.179688-89.402344-27.371094c-7.269531-2.226563-14.964843 1.863281-17.191406 9.132812-6.449218 21.070313 5.398438 43.378906 26.46875 49.828125l21.875 6.695313c-22.949218 7.292968-39.238281 29.121094-38.417968 54.375.988281 30.464844 26.484374 54.359375 56.949218 53.367187 30.460938-.988281 46.644532-27.21875 53.367188-56.949219 2.773437-12.261718 6.136718-35.878906 8.589844-54.5 2.023437-15.410156-7.375-30.027343-22.238282-34.578124zm0 0" fill="#ffdbbd"/><path d="m274.222656 178.179688-18.53125-5.671876c11.183594 6.625 17.699219 19.421876 15.941406 32.800782-2.550781 19.378906-6.054687 43.957031-8.941406 56.71875-6.527344 28.863281-21.625 54.546875-49.355468 58.703125 6.570312 2.46875 13.71875 3.722656 21.167968 3.480469 30.460938-.988282 46.644532-27.222657 53.367188-56.949219 2.773437-12.265625 6.136718-35.878907 8.589844-54.503907 2.023437-15.410156-7.375-30.027343-22.238282-34.578124zm0 0" fill="#eaad7a"/><path d="m283.285156 104.164062c-1.074218 4 1.300782 8.113282 5.300782 9.1875 4.003906 1.070313 8.113281-1.304687 9.1875-5.304687l16.328124-60.941406c2.53125-9.445313 1.234376-19.3125-3.65625-27.78125-4.886718-8.472657-12.785156-14.535157-22.234374-17.0625l-3.773438-1.011719c-19.507812-5.222656-39.621094 6.394531-44.84375 25.894531l-26.050781 97.25c-7.429688-9.320312-18.875-15.308593-31.695313-15.308593-10.820312 0-20.996094 4.214843-28.664062 11.867187-1.617188 1.621094-3.082032 3.351563-4.386719 5.179687-7.355469-10.308593-19.414063-17.046874-33.015625-17.046874-12.28125 0-23.304688 5.492187-30.742188 14.152343l-18.199218-69.074219c-2.1875-8.289062-7.472656-15.21875-14.886719-19.519531-7.410156-4.304687-16.054687-5.453125-24.335937-3.234375l-3.40625.914063c-16.984376 4.554687-27.140626 22.089843-22.648438 39.078125l29.914062 113.238281v42.4375c0 4.140625 3.355469 7.5 7.5 7.5 4.140626 0 7.5-3.359375 7.5-7.5v-43.410156c0-.648438-.085937-1.292969-.25-1.917969l-30.160156-114.183594c-2.386718-9.023437 3.011719-18.335937 12.027344-20.753906l3.402344-.914062c4.398437-1.175782 8.992187-.566407 12.929687 1.71875 3.9375 2.285156 6.746094 5.96875 7.90625 10.371093l23.109375 87.699219c-.125 1.292969-.1875 2.605469-.1875 3.929688v58.839843c0 22.351563 18.179688 40.53125 40.527344 40.53125 13.613281 0 25.679688-6.746093 33.03125-17.070312 5.835938 8.195312 14.640625 14.132812 24.832031 16.234375-2.574219 7.21875-3.847656 14.972656-3.589843 22.933594.136718 4.140624 3.628906 7.378906 7.742187 7.253906 4.140625-.132813 7.386719-3.601563 7.25-7.738282-.664063-20.445312 11.964844-39.117187 30.96875-46.21875l16.453125 5.472657c.785156.261719 1.582031.386719 2.367188.386719 3.144531 0 6.070312-1.992188 7.117187-5.136719 1.304687-3.933594-.820313-8.175781-4.753906-9.484375l-18.863281-6.273438c-.070313-.023437-.140626-.042968-.210938-.066406l-21.835938-6.683594c-8.273437-2.535156-15.066406-8.136718-19.125-15.777344-4.058593-7.644531-4.898437-16.410156-2.363281-24.683593.488281-1.601563 1.570313-2.914063 3.050781-3.699219 1.480469-.785156 3.171876-.945312 4.773438-.457031 18.019531 5.515625 71.265625 21.820312 89.402344 27.371093 11.402344 3.492188 18.550781 14.605469 16.996094 26.429688-3.371094 25.621094-6.300782 44.234375-8.46875 53.824219-4.222657 18.664062-15.847657 50.121093-46.296876 51.109375-4.140624.132812-7.386718 3.601562-7.253906 7.738281.128906 3.914063 3.226563 7.027344 7.0625 7.246094-.640625 3.464843-.851562 3.929687-.851562 5.101562v1.59375h-140.867188v-13.625h39.734375c4.140625 0 7.5-3.359375 7.5-7.5s-3.359375-7.5-7.5-7.5h-53.425781c-.027344 0-.054688 0-.082031 0-.921875 0-1.875-.046875-2.875-.140625-16.386719-1.449218-29.222657-15.496094-29.222657-31.96875v-20.582031c0-4.140625-3.359374-7.5-7.5-7.5-4.140624 0-7.5 3.359375-7.5 7.5v20.582031c0 24.574219 18.441407 44.742188 42.851563 46.90625 1.007813.09375 2.019531.15625 3.019531.183594v13.992188c-14.101562 2.183593-24.925781 14.40625-24.925781 29.109374v54.976563c0 14.703125 10.824219 26.925781 24.925781 29.109375v52.5625c0 4.140625 3.355469 7.5 7.5 7.5 4.140625 0 7.5-3.359375 7.5-7.5v-52.214844h140.871094v52.214844c0 4.140625 3.355469 7.5 7.5 7.5 4.140625 0 7.5-3.359375 7.5-7.5v-52.320312c15.082031-1.265626 26.96875-13.945313 26.96875-29.351563v-54.976563c0-15.40625-11.886719-28.089843-26.96875-29.355468v-.976563l1.609375-8.300781c22.144531-6.898438 37.996094-27.761719 45.359375-60.304688 2.863281-12.671874 6.316406-37 8.707031-55.179687 2.324219-17.664063-7.367187-34.347656-23.394531-41.234375l9.460938-35.304688c1.070312-4-1.300782-8.113281-5.304688-9.183593-3.996094-1.074219-8.113281 1.300781-9.183594 5.300781l-9.265625 34.566406-43.839843-13.421875v-4.84375c0-.0625 0-.128906 0-.191406l31.714843-118.398437c3.082031-11.515626 14.960938-18.375 26.472657-15.285157l3.773437 1.007813c5.578125 1.496094 10.238281 5.070312 13.125 10.070312 2.886719 5.003906 3.652344 10.828125 2.160156 16.40625zm-23.097656 263.6875v54.976563c0 7.972656-6.484375 14.457031-14.457031 14.457031h-163.851563c-7.972656 0-14.457031-6.484375-14.457031-14.457031v-54.976563c0-7.972656 6.484375-14.460937 14.457031-14.460937h163.851563c7.972656 0 14.457031 6.488281 14.457031 14.460937zm-144.40625-133.863281c-14.074219 0-25.527344-11.453125-25.527344-25.53125v-58.839843c0-1.132813.074219-2.25.21875-3.347657.011719-.070312.019532-.144531.027344-.21875 1.742188-12.394531 12.417969-21.960937 25.28125-21.960937 14.078125 0 25.53125 11.453125 25.53125 25.527344 0 .082031 0 .164062.003906.246093v58.351563c-.003906.082031-.003906.164062-.003906.246094 0 14.074218-11.453125 25.527343-25.53125 25.527343zm55.035156-88.796875c-5.019531 2.664063-8.695312 7.121094-10.359375 12.554688-3.707031 12.105468-2.476562 24.925781 3.464844 36.109375 5.9375 11.179687 15.875 19.378906 27.980469 23.082031l4.167968 1.277344c-5.988281 4.335937-11.136718 9.6875-15.238281 15.75-13.609375-.535156-24.515625-11.773438-24.515625-25.507813v-58.839843c0-6.828126 2.65625-13.238282 7.472656-18.054688 4.828126-4.820312 11.242188-7.476562 18.058594-7.476562 13.730469 0 24.960938 10.902343 25.5 24.507812 0 .105469.003906.210938.011719.316406.003906.234375.007813.46875.007813.707032v.25l-20.347657-6.230469c-5.433593-1.664063-11.1875-1.109375-16.203125 1.554687zm0 0"/><path d="m100.574219 371.929688c-12.90625 0-23.40625 10.5-23.40625 23.40625 0 12.910156 10.5 23.410156 23.40625 23.410156s23.40625-10.5 23.40625-23.410156c0-12.90625-10.5-23.40625-23.40625-23.40625zm0 31.816406c-4.636719 0-8.40625-3.773438-8.40625-8.410156 0-4.632813 3.769531-8.40625 8.40625-8.40625s8.40625 3.773437 8.40625 8.40625c0 4.636718-3.769531 8.410156-8.40625 8.410156zm0 0"/><path d="m163.804688 371.929688c-12.90625 0-23.40625 10.5-23.40625 23.40625 0 12.910156 10.5 23.410156 23.40625 23.410156s23.40625-10.5 23.40625-23.410156c0-12.90625-10.5-23.40625-23.40625-23.40625zm0 31.816406c-4.636719 0-8.40625-3.773438-8.40625-8.410156 0-4.632813 3.769531-8.40625 8.40625-8.40625 4.632812 0 8.40625 3.773437 8.40625 8.40625 0 4.636718-3.773438 8.410156-8.40625 8.410156zm0 0"/><path d="m227.03125 371.929688c-12.90625 0-23.40625 10.5-23.40625 23.40625 0 12.910156 10.5 23.410156 23.40625 23.410156s23.40625-10.5 23.40625-23.410156c.003906-12.90625-10.496094-23.40625-23.40625-23.40625zm0 31.816406c-4.632812 0-8.40625-3.773438-8.40625-8.410156 0-4.632813 3.773438-8.40625 8.40625-8.40625 4.636719 0 8.40625 3.773437 8.40625 8.40625.003906 4.636718-3.769531 8.410156-8.40625 8.410156zm0 0"/></svg>